<?xml version="1.0" standalone="no"?>
<!DOCTYPE svg PUBLIC "-//W3C//DTD SVG 20010904//EN"
 "http://www.w3.org/TR/2001/REC-SVG-20010904/DTD/svg10.dtd">
<svg version="1.0" xmlns="http://www.w3.org/2000/svg"
 width="260.000000pt" height="260.000000pt" viewBox="0 0 260.000000 260.000000"
 preserveAspectRatio="xMidYMid meet">
<metadata>
Created by potrace 1.14, written by Peter Selinger 2001-2017
</metadata>
<g transform="translate(0.000000,260.000000) scale(0.100000,-0.100000)"
fill="#000000" stroke="none">
<path d="M1715 2031 c-42 -10 -110 -57 -141 -98 -30 -40 -130 -236 -139 -275
-4 -15 -13 -32 -21 -39 -8 -6 -14 -16 -14 -22 0 -5 -28 -52 -62 -104 -57 -85
-65 -93 -88 -88 -29 7 -207 94 -265 130 -134 83 -250 117 -305 88 -85 -44 -86
-65 -9 -283 33 -96 62 -179 63 -185 1 -5 5 -16 9 -23 5 -7 11 -24 13 -39 3
-15 10 -33 16 -40 12 -14 21 -10 -277 -135 -195 -82 -345 -156 -345 -170 0 -4
-5 -8 -11 -8 -31 0 -87 -106 -95 -178 -5 -58 16 -100 66 -132 22 -13 40 -28
40 -32 0 -4 7 -8 15 -8 8 0 15 -4 15 -9 0 -5 8 -11 18 -14 9 -3 44 -17 77 -30
69 -29 119 -39 190 -39 l50 0 -35 -16 c-19 -9 -62 -28 -95 -41 -137 -56 -185
-82 -190 -104 -4 -13 -29 -35 -65 -56 -32 -19 -71 -45 -87 -57 l-28 -23 868
-1 c477 0 867 3 867 8 0 13 -61 72 -101 99 l-39 26 29 29 c30 31 68 138 70
201 1 9 6 17 12 17 6 0 9 -19 6 -54 -6 -61 5 -88 25 -68 14 14 17 139 4 187
-7 27 -5 31 23 41 57 22 82 93 55 159 -8 20 -53 65 -65 65 -4 0 -24 7 -45 16
l-38 16 35 21 c85 52 259 170 259 176 0 4 14 15 32 26 50 29 211 194 252 257
31 49 79 159 91 209 2 9 8 34 14 55 16 58 13 108 -9 175 -25 73 -48 108 -118
175 -76 74 -245 169 -337 191 -38 8 -160 11 -190 4z"/>
</g>
</svg>
